<svg width="17" height="18" viewBox="0 0 17 18" fill="none" xmlns="http://www.w3.org/2000/svg">
<path d="M6.00801 2.5H4.20801C3.0879 2.5 2.52743 2.5 2.09961 2.71799C1.72329 2.90973 1.41755 3.21547 1.2258 3.5918C1.00781 4.01962 1.00781 4.58009 1.00781 5.7002V13.3002C1.00781 14.4203 1.00781 14.9801 1.2258 15.4079C1.41755 15.7842 1.72329 16.0905 2.09961 16.2822C2.52701 16.5 3.08681 16.5 4.20472 16.5H11.8109C12.9288 16.5 13.4878 16.5 13.9152 16.2822C14.2915 16.0905 14.5983 15.7839 14.79 15.4076C15.0078 14.9802 15.0078 14.421 15.0078 13.3031V11.5M16.0078 6.5V1.5M16.0078 1.5H11.0078M16.0078 1.5L9.00781 8.5" stroke="white" stroke-width="2" stroke-linecap="round" stroke-linejoin="round"/>
</svg>
