<svg width="22" height="22" viewBox="0 0 22 22" fill="none" xmlns="http://www.w3.org/2000/svg">
<path d="M19.3539 7.92305L18.9876 7.71932C18.9308 7.68769 18.9028 7.67181 18.8753 7.65536C18.6022 7.49177 18.3721 7.26576 18.2041 6.99535C18.1872 6.96814 18.1713 6.93961 18.1387 6.88322C18.1062 6.8269 18.0897 6.79836 18.0745 6.7701C17.9239 6.48878 17.8424 6.17527 17.8375 5.85618C17.837 5.82411 17.8371 5.79133 17.8382 5.72617L17.8454 5.3009C17.8568 4.62038 17.8626 4.27906 17.7669 3.97274C17.682 3.70066 17.5399 3.45005 17.3501 3.23737C17.1356 2.99697 16.8386 2.82547 16.2441 2.48289L15.7503 2.19833C15.1575 1.8567 14.861 1.68583 14.5462 1.62069C14.2678 1.56306 13.9804 1.56573 13.703 1.62801C13.3899 1.69831 13.097 1.87363 12.5118 2.22408L12.5085 2.22567L12.1546 2.43753C12.0987 2.47103 12.0704 2.48792 12.0423 2.50351C11.764 2.65823 11.4534 2.74378 11.1351 2.75399C11.1031 2.75502 11.0704 2.75502 11.0052 2.75502C10.9404 2.75502 10.9064 2.75502 10.8744 2.75399C10.5554 2.74373 10.2441 2.65772 9.96542 2.50236C9.93733 2.4867 9.90954 2.46968 9.85348 2.43602L9.4974 2.22225C8.90813 1.86849 8.61305 1.69134 8.29818 1.62069C8.01961 1.55819 7.73128 1.55646 7.45181 1.61483C7.13626 1.68074 6.83967 1.85288 6.24649 2.19715L6.24385 2.19833L5.75619 2.48136L5.75079 2.48466C5.16295 2.82584 4.86832 2.99684 4.6556 3.23626C4.46684 3.44872 4.32575 3.69893 4.2413 3.9703C4.14585 4.27703 4.15093 4.61908 4.16244 5.30282L4.16958 5.72748C4.17067 5.79179 4.17254 5.82374 4.17207 5.85537C4.16734 6.17511 4.08476 6.48926 3.93365 6.77108C3.91871 6.79895 3.9026 6.82682 3.87045 6.8825C3.83826 6.93821 3.82268 6.96591 3.80599 6.9928C3.63727 7.26465 3.40605 7.49198 3.13124 7.65585C3.10406 7.67205 3.07541 7.68764 3.01912 7.71883L2.65756 7.9192C2.05599 8.25257 1.75528 8.4194 1.53646 8.65682C1.34289 8.86684 1.19666 9.11597 1.1074 9.38729C1.00649 9.69399 1.00658 10.0379 1.00814 10.7257L1.00942 11.2878C1.01097 11.971 1.0131 12.3123 1.11423 12.6169C1.20369 12.8864 1.34886 13.1341 1.54135 13.3429C1.75892 13.5788 2.05664 13.7446 2.65365 14.0767L3.01199 14.2761C3.07297 14.31 3.10366 14.3268 3.13307 14.3445C3.40539 14.5085 3.6348 14.7352 3.80209 15.0055C3.82016 15.0347 3.83751 15.065 3.8722 15.1256C3.90647 15.1854 3.924 15.2154 3.93984 15.2454C4.08651 15.5231 4.16505 15.8316 4.1704 16.1456C4.17098 16.1795 4.17048 16.2138 4.16932 16.2828L4.16244 16.6903C4.15086 17.3764 4.14581 17.7198 4.24183 18.0274C4.32677 18.2995 4.46875 18.5501 4.65853 18.7628C4.87306 19.0032 5.17046 19.1746 5.76498 19.5172L6.25868 19.8017C6.85153 20.1433 7.14785 20.314 7.46259 20.3791C7.74104 20.4367 8.02855 20.4345 8.30599 20.3722C8.61957 20.3018 8.91339 20.1259 9.50033 19.7744L9.85415 19.5626C9.91013 19.5291 9.93848 19.5123 9.96652 19.4967C10.2448 19.3419 10.5551 19.256 10.8734 19.2457C10.9054 19.2447 10.9381 19.2447 11.0033 19.2447C11.0687 19.2447 11.1013 19.2447 11.1334 19.2457C11.4524 19.256 11.7646 19.3423 12.0433 19.4976C12.0678 19.5113 12.0924 19.5261 12.1355 19.552L12.5117 19.7778C13.101 20.1316 13.3955 20.3083 13.7104 20.3789C13.9889 20.4414 14.2775 20.444 14.557 20.3856C14.8724 20.3197 15.1696 20.1472 15.7625 19.8031L16.2575 19.5158C16.8457 19.1744 17.1406 19.0033 17.3534 18.7638C17.5422 18.5513 17.6835 18.3012 17.7679 18.0298C17.8627 17.7253 17.857 17.3859 17.8456 16.712L17.8382 16.2725C17.8371 16.2082 17.837 16.1762 17.8375 16.1446C17.8422 15.8249 17.9234 15.5105 18.0745 15.2287C18.0895 15.2009 18.1057 15.1728 18.1378 15.1173C18.1699 15.0616 18.1866 15.0338 18.2033 15.0069C18.372 14.7351 18.6035 14.5075 18.8783 14.3437C18.9051 14.3277 18.9328 14.3123 18.9877 14.2819L18.9896 14.281L19.3512 14.0807C19.9527 13.7473 20.254 13.5803 20.4728 13.3429C20.6664 13.1328 20.8124 12.8841 20.9017 12.6127C21.002 12.3078 21.0012 11.9659 20.9997 11.2862L20.9984 10.712C20.9968 10.0288 20.996 9.68752 20.8949 9.3829C20.8054 9.1134 20.6594 8.86573 20.4669 8.65697C20.2496 8.42123 19.9514 8.25538 19.3556 7.9239L19.3539 7.92305Z" stroke="white" stroke-width="2" stroke-linecap="round" stroke-linejoin="round"/>
<path d="M7.00424 11.0001C7.00424 13.2092 8.7951 15.0001 11.0042 15.0001C13.2134 15.0001 15.0042 13.2092 15.0042 11.0001C15.0042 8.79094 13.2134 7.00008 11.0042 7.00008C8.7951 7.00008 7.00424 8.79094 7.00424 11.0001Z" stroke="white" stroke-width="2" stroke-linecap="round" stroke-linejoin="round"/>
</svg>
